<?xml version="1.0" standalone="no"?>
<!DOCTYPE svg PUBLIC "-//W3C//DTD SVG 20010904//EN"
 "http://www.w3.org/TR/2001/REC-SVG-20010904/DTD/svg10.dtd">
<svg version="1.0" xmlns="http://www.w3.org/2000/svg"
 width="768.000000pt" height="768.000000pt" viewBox="0 0 768.000000 768.000000"
 preserveAspectRatio="xMidYMid meet">

<g transform="translate(0.000000,768.000000) scale(0.100000,-0.100000)"
fill="#000000" stroke="none">
<path d="M3625 7128 c-697 -70 -1307 -493 -1590 -1103 -176 -377 -205 -771
-99 -1319 131 -675 463 -1554 971 -2571 333 -666 690 -1288 882 -1539 l45 -59
34 39 c46 53 227 324 344 514 385 628 805 1456 1073 2115 315 774 483 1425
510 1975 26 523 -161 1005 -535 1379 -419 419 -1027 630 -1635 569z m505 -862
c393 -109 694 -423 765 -801 25 -131 17 -319 -20 -440 -116 -391 -453 -677
-872 -740 -124 -19 -212 -19 -336 0 -247 37 -445 139 -622 319 -192 195 -285
418 -285 679 0 498 366 912 889 1007 25 5 123 7 216 5 146 -3 184 -7 265 -29z"/>
</g>
</svg>
