<?xml version="1.0" standalone="no"?>
<!DOCTYPE svg PUBLIC "-//W3C//DTD SVG 20010904//EN"
 "http://www.w3.org/TR/2001/REC-SVG-20010904/DTD/svg10.dtd">
<svg version="1.0" xmlns="http://www.w3.org/2000/svg"
 width="290.000000pt" height="290.000000pt" viewBox="0 0 290.000000 290.000000"
 preserveAspectRatio="xMidYMid meet">

<g transform="translate(0.000000,290.000000) scale(0.100000,-0.100000)"
fill="#000000" stroke="none">
<path d="M569 1705 c-58 -31 -64 -54 -67 -251 -4 -214 3 -252 55 -291 l36 -28
207 0 c180 0 209 2 233 18 57 37 62 55 65 257 4 214 -4 251 -57 287 -33 22
-42 23 -240 23 -158 -1 -212 -4 -232 -15z m346 -43 c85 -44 144 -137 145 -228
0 -60 -24 -135 -51 -160 -19 -17 -19 -16 -19 60 l0 76 -187 -2 -188 -3 -5 -75
-5 -75 -22 31 c-46 65 -54 182 -17 256 32 64 93 116 164 139 41 14 142 3 185
-19z m-215 -292 c0 -5 -11 -10 -25 -10 -14 0 -25 5 -25 10 0 6 11 10 25 10 14
0 25 -4 25 -10z m80 0 c0 -5 -9 -10 -20 -10 -11 0 -20 5 -20 10 0 6 9 10 20
10 11 0 20 -4 20 -10z m80 0 c0 -5 -9 -10 -20 -10 -11 0 -20 5 -20 10 0 6 9
10 20 10 11 0 20 -4 20 -10z m90 0 c0 -5 -12 -10 -26 -10 -14 0 -23 4 -19 10
3 6 15 10 26 10 10 0 19 -4 19 -10z m-250 -40 c0 -5 -11 -10 -25 -10 -14 0
-25 5 -25 10 0 6 11 10 25 10 14 0 25 -4 25 -10z m80 0 c0 -5 -9 -10 -20 -10
-11 0 -20 5 -20 10 0 6 9 10 20 10 11 0 20 -4 20 -10z m80 0 c0 -5 -9 -10 -20
-10 -11 0 -20 5 -20 10 0 6 9 10 20 10 11 0 20 -4 20 -10z m90 0 c0 -5 -9 -10
-19 -10 -11 0 -23 5 -26 10 -4 6 5 10 19 10 14 0 26 -4 26 -10z m-250 -40 c0
-5 -11 -10 -25 -10 -14 0 -25 5 -25 10 0 6 11 10 25 10 14 0 25 -4 25 -10z
m80 0 c0 -5 -9 -10 -20 -10 -11 0 -20 5 -20 10 0 6 9 10 20 10 11 0 20 -4 20
-10z m85 0 c4 -6 -5 -10 -19 -10 -14 0 -26 5 -26 10 0 6 9 10 19 10 11 0 23
-4 26 -10z m85 0 c0 -5 -9 -10 -20 -10 -11 0 -20 5 -20 10 0 6 9 10 20 10 11
0 20 -4 20 -10z m1 -70 c-41 -35 -117 -54 -181 -47 -52 6 -118 35 -139 61 -12
14 4 16 170 16 l184 -1 -34 -29z"/>
<path d="M725 1600 c-3 -5 -4 -14 0 -19 3 -5 -9 -11 -27 -13 l-33 -3 -3 -72
c-2 -46 1 -73 8 -73 6 0 10 27 10 65 0 58 2 65 20 65 18 0 20 -7 20 -65 l0
-65 45 0 44 0 -6 65 -6 65 52 0 c32 0 50 4 46 10 -3 6 -26 10 -51 10 -37 0
-44 3 -44 20 0 16 -7 20 -34 20 -19 0 -38 -4 -41 -10z"/>
<path d="M827 1533 c-4 -3 -7 -30 -7 -60 l0 -53 75 0 75 0 0 60 0 60 -68 0
c-38 0 -72 -3 -75 -7z"/>
<path d="M1330 1608 c-5 -7 -18 -24 -28 -37 l-19 -24 -19 31 c-29 51 -44 41
-44 -28 0 -33 4 -60 10 -60 6 0 10 19 10 43 l1 42 17 -27 c9 -16 21 -28 27
-28 6 0 18 12 27 28 l17 27 1 -42 c0 -24 5 -43 10 -43 6 0 10 28 10 65 0 67
-2 73 -20 53z"/>
<path d="M1403 1613 c-25 -9 -13 -23 18 -21 48 4 47 -19 -1 -27 -39 -7 -41 -9
-38 -38 3 -32 4 -32 61 -33 53 -1 71 6 47 21 -5 3 -10 24 -10 45 0 49 -33 72
-77 53z m57 -77 c0 -14 -21 -26 -46 -26 -17 0 -19 26 -1 33 24 10 47 7 47 -7z"/>
<path d="M1526 1607 c-14 -10 -16 -25 -14 -87 3 -72 20 -103 26 -49 3 22 7 25
28 21 35 -6 64 23 64 64 0 53 -61 83 -104 51z m65 -17 c40 -22 13 -89 -31 -75
-15 5 -20 15 -20 39 0 47 13 56 51 36z"/>
<path d="M1658 1614 c-5 -4 -8 -34 -8 -66 l0 -58 80 0 80 0 0 66 c0 41 -4 63
-10 59 -5 -3 -10 -29 -10 -56 0 -47 -2 -50 -22 -47 -20 3 -23 10 -26 56 -4 66
-22 59 -22 -9 0 -45 -2 -49 -25 -49 -22 0 -24 4 -27 56 -2 31 -6 52 -10 48z"/>
<path d="M1853 1614 c-16 -7 -18 -174 -3 -174 6 0 10 13 10 28 0 26 3 28 29
24 53 -8 91 57 58 101 -12 18 -72 31 -94 21z m66 -33 c34 -34 5 -80 -40 -66
-14 5 -19 16 -19 39 0 51 24 62 59 27z"/>
<path d="M1968 1614 c-9 -8 44 -124 56 -124 6 0 0 -10 -14 -21 l-25 -20 25 3
c20 3 29 15 52 73 31 80 33 88 16 83 -6 -2 -19 -26 -29 -54 l-16 -49 -26 58
c-26 58 -29 62 -39 51z"/>
<path d="M2105 1609 c-4 -6 2 -13 13 -16 17 -4 22 -14 24 -52 2 -25 8 -46 13
-46 6 0 11 21 13 46 2 38 7 48 24 52 34 9 10 27 -37 27 -24 0 -47 -5 -50 -11z"/>
<path d="M2224 1607 c-3 -8 -4 -36 -2 -63 3 -48 3 -49 39 -52 40 -3 69 17 69
48 0 21 -28 40 -59 40 -12 0 -21 6 -21 14 0 21 -19 30 -26 13z m83 -63 c7 -18
-12 -34 -39 -34 -13 0 -18 8 -18 25 0 20 5 25 25 25 14 0 28 -7 32 -16z"/>
<path d="M2340 1550 c0 -33 4 -60 10 -60 6 0 10 27 10 60 0 33 -4 60 -10 60
-6 0 -10 -27 -10 -60z"/>
<path d="M1285 1443 c-73 -24 -96 -83 -54 -137 25 -31 61 -34 89 -6 24 24 25
48 4 79 -13 18 -24 22 -50 19 -26 -3 -31 -1 -22 9 6 7 20 13 32 13 26 0 50 14
45 27 -2 5 -22 3 -44 -4z m25 -78 c15 -19 4 -52 -21 -60 -26 -8 -49 11 -49 40
0 34 47 48 70 20z"/>
<path d="M1350 1399 c0 -6 12 -38 27 -71 25 -57 26 -59 7 -74 -18 -14 -18 -14
6 -12 20 2 30 15 52 68 27 67 34 100 20 100 -5 0 -17 -25 -27 -55 -11 -30 -22
-52 -26 -47 -3 4 -14 28 -24 55 -16 43 -35 63 -35 36z"/>
<path d="M1500 1377 c0 -18 -7 -42 -15 -53 -16 -22 -20 -64 -5 -64 6 0 10 5
10 10 0 6 23 10 50 10 40 0 50 -3 50 -17 0 -21 13 -8 17 17 2 11 -2 20 -7 20
-6 0 -10 25 -10 55 l0 55 -45 0 c-44 0 -45 -1 -45 -33z m70 -32 c0 -45 0 -45
-35 -45 -32 0 -35 2 -25 19 5 11 10 31 10 45 0 21 5 26 25 26 23 0 25 -4 25
-45z"/>
<path d="M1610 1401 c0 -6 13 -38 29 -71 25 -54 26 -62 12 -70 -9 -4 -12 -12
-8 -16 20 -20 59 43 92 147 14 42 -18 13 -34 -31 -9 -25 -21 -44 -26 -43 -5 1
-16 21 -26 44 -15 40 -39 64 -39 40z"/>
<path d="M1756 1399 c-4 -9 -6 -38 -4 -65 l3 -49 78 -3 c42 -2 77 -7 77 -12 0
-6 4 -10 10 -10 11 0 1 131 -11 145 -6 5 -9 3 -10 -5 0 -8 -1 -33 -2 -55 -2
-33 -6 -41 -24 -43 -20 -3 -22 2 -25 48 -2 27 -7 50 -13 50 -5 0 -11 -23 -13
-50 -3 -46 -5 -51 -25 -48 -19 3 -23 11 -27 58 -4 36 -9 49 -14 39z"/>
<path d="M1962 1394 c-33 -23 -27 -83 9 -103 27 -15 79 -9 79 10 0 7 -10 9
-25 5 -27 -7 -65 8 -65 24 0 6 20 10 44 10 53 0 64 12 42 45 -19 29 -51 32
-84 9z m66 -21 c2 -9 -8 -13 -33 -13 -33 0 -36 2 -25 15 15 18 51 16 58 -2z"/>
<path d="M2074 1396 c-9 -23 0 -111 11 -109 6 2 11 25 13 53 3 48 4 50 33 50
16 0 29 5 29 10 0 16 -80 12 -86 -4z"/>
<path d="M2192 1394 c-30 -21 -30 -77 0 -98 48 -34 108 -4 108 53 0 33 -30 61
-65 61 -11 0 -31 -7 -43 -16z m69 -14 c28 -15 25 -58 -5 -71 -49 -23 -95 43
-48 70 22 13 29 13 53 1z"/>
</g>
</svg>
