<?xml version="1.0" standalone="no"?>
<!DOCTYPE svg PUBLIC "-//W3C//DTD SVG 20010904//EN"
 "http://www.w3.org/TR/2001/REC-SVG-20010904/DTD/svg10.dtd">
<svg version="1.0" xmlns="http://www.w3.org/2000/svg"
 width="277.000000pt" height="253.000000pt" viewBox="0 0 277.000000 253.000000"
 preserveAspectRatio="xMidYMid meet">

<g transform="translate(0.000000,253.000000) scale(0.100000,-0.100000)"
fill="#000000" stroke="none">
<path d="M1340 1340 c0 -260 4 -400 10 -400 7 0 10 140 10 400 0 260 -3 400
-10 400 -6 0 -10 -140 -10 -400z"/>
<path d="M953 1513 c9 -2 23 -2 30 0 6 3 -1 5 -18 5 -16 0 -22 -2 -12 -5z"/>
<path d="M1486 1498 c9 -13 6 -306 -2 -320 -3 -4 7 -8 22 -8 21 0 24 3 15 14
-8 9 -11 56 -9 142 l3 128 59 -137 c32 -75 61 -137 65 -137 3 0 21 37 40 83
19 45 47 109 63 142 l28 60 -3 -148 -2 -147 28 0 c24 0 26 2 17 19 -13 26 -13
277 1 302 9 18 8 20 -17 17 -26 -3 -33 -15 -88 -141 l-59 -139 -60 141 c-54
126 -63 141 -84 141 -16 0 -22 -4 -17 -12z"/>
<path d="M1920 1491 c13 -26 13 -276 0 -302 -10 -18 -7 -19 45 -19 99 0 145
32 145 103 0 48 -36 79 -100 85 l-50 5 0 63 0 64 53 0 c29 0 58 -5 65 -12 9
-9 12 -7 12 10 0 21 -4 22 -90 22 -87 0 -90 -1 -80 -19z m135 -176 c14 -13 25
-36 25 -50 0 -38 -42 -75 -85 -75 l-35 0 0 75 0 75 35 0 c25 0 44 -8 60 -25z"/>
<path d="M900 1491 c-11 -8 -5 -9 21 -5 20 4 46 1 57 -5 11 -6 23 -7 26 -3 3
5 0 9 -7 10 -7 1 -28 4 -47 7 -19 3 -42 1 -50 -4z"/>
<path d="M984 1363 c-6 -76 -9 -89 -14 -58 -3 27 -8 36 -14 27 -4 -7 -15 -11
-23 -8 -8 3 -26 0 -41 -8 -15 -7 -33 -11 -40 -9 -8 3 -16 -4 -19 -16 -6 -23
-19 -28 -26 -8 -3 9 -9 9 -27 -1 -19 -11 -24 -11 -31 -1 -6 11 -12 11 -33 -1
-24 -12 -26 -19 -26 -82 l0 -68 210 0 210 0 0 66 c0 71 -16 100 -49 89 -16 -5
-19 2 -25 67 -9 90 -14 108 -31 108 -9 0 -15 -27 -21 -97z m-254 -143 c0 -5
-4 -10 -10 -10 -5 0 -10 5 -10 10 0 6 5 10 10 10 6 0 10 -4 10 -10z m25 0 c3
-5 1 -10 -4 -10 -6 0 -11 5 -11 10 0 6 2 10 4 10 3 0 8 -4 11 -10z m55 0 c0
-5 -5 -10 -11 -10 -5 0 -7 5 -4 10 3 6 8 10 11 10 2 0 4 -4 4 -10z m30 0 c0
-5 -4 -10 -10 -10 -5 0 -10 5 -10 10 0 6 5 10 10 10 6 0 10 -4 10 -10z m30 0
c0 -5 -4 -10 -10 -10 -5 0 -10 5 -10 10 0 6 5 10 10 10 6 0 10 -4 10 -10z m25
0 c3 -5 1 -10 -4 -10 -6 0 -11 5 -11 10 0 6 2 10 4 10 3 0 8 -4 11 -10z m55 0
c0 -5 -5 -10 -11 -10 -5 0 -7 5 -4 10 3 6 8 10 11 10 2 0 4 -4 4 -10z m30 0
c0 -5 -4 -10 -10 -10 -5 0 -10 5 -10 10 0 6 5 10 10 10 6 0 10 -4 10 -10z m30
0 c0 -5 -4 -10 -10 -10 -5 0 -10 5 -10 10 0 6 5 10 10 10 6 0 10 -4 10 -10z
m25 0 c3 -5 1 -10 -4 -10 -6 0 -11 5 -11 10 0 6 2 10 4 10 3 0 8 -4 11 -10z
m55 0 c0 -5 -5 -10 -11 -10 -5 0 -7 5 -4 10 3 6 8 10 11 10 2 0 4 -4 4 -10z
m-360 -30 c0 -5 -4 -10 -10 -10 -5 0 -10 5 -10 10 0 6 5 10 10 10 6 0 10 -4
10 -10z m30 0 c0 -5 -4 -10 -10 -10 -5 0 -10 5 -10 10 0 6 5 10 10 10 6 0 10
-4 10 -10z m50 0 c0 -5 -4 -10 -10 -10 -5 0 -10 5 -10 10 0 6 5 10 10 10 6 0
10 -4 10 -10z m30 0 c0 -5 -4 -10 -10 -10 -5 0 -10 5 -10 10 0 6 5 10 10 10 6
0 10 -4 10 -10z m30 0 c0 -5 -4 -10 -10 -10 -5 0 -10 5 -10 10 0 6 5 10 10 10
6 0 10 -4 10 -10z m30 0 c0 -5 -4 -10 -10 -10 -5 0 -10 5 -10 10 0 6 5 10 10
10 6 0 10 -4 10 -10z m50 0 c0 -5 -4 -10 -10 -10 -5 0 -10 5 -10 10 0 6 5 10
10 10 6 0 10 -4 10 -10z m30 0 c0 -5 -4 -10 -10 -10 -5 0 -10 5 -10 10 0 6 5
10 10 10 6 0 10 -4 10 -10z m30 0 c0 -5 -4 -10 -10 -10 -5 0 -10 5 -10 10 0 6
5 10 10 10 6 0 10 -4 10 -10z m30 6 c0 -3 -4 -8 -10 -11 -5 -3 -10 -1 -10 4 0
6 5 11 10 11 6 0 10 -2 10 -4z m50 -6 c0 -5 -4 -10 -10 -10 -5 0 -10 5 -10 10
0 6 5 10 10 10 6 0 10 -4 10 -10z m-360 -30 c0 -5 -4 -10 -10 -10 -5 0 -10 5
-10 10 0 6 5 10 10 10 6 0 10 -4 10 -10z m30 6 c0 -3 -4 -8 -10 -11 -5 -3 -10
-1 -10 4 0 6 5 11 10 11 6 0 10 -2 10 -4z m50 -6 c0 -5 -2 -10 -4 -10 -3 0 -8
5 -11 10 -3 6 -1 10 4 10 6 0 11 -4 11 -10z m30 0 c0 -5 -4 -10 -10 -10 -5 0
-10 5 -10 10 0 6 5 10 10 10 6 0 10 -4 10 -10z m30 0 c0 -5 -4 -10 -10 -10 -5
0 -10 5 -10 10 0 6 5 10 10 10 6 0 10 -4 10 -10z m80 0 c0 -5 -2 -10 -4 -10
-3 0 -8 5 -11 10 -3 6 -1 10 4 10 6 0 11 -4 11 -10z m30 0 c0 -5 -4 -10 -10
-10 -5 0 -10 5 -10 10 0 6 5 10 10 10 6 0 10 -4 10 -10z m30 0 c0 -5 -4 -10
-10 -10 -5 0 -10 5 -10 10 0 6 5 10 10 10 6 0 10 -4 10 -10z m30 6 c0 -3 -4
-8 -10 -11 -5 -3 -10 -1 -10 4 0 6 5 11 10 11 6 0 10 -2 10 -4z m50 -6 c0 -5
-2 -10 -4 -10 -3 0 -8 5 -11 10 -3 6 -1 10 4 10 6 0 11 -4 11 -10z"/>
<path d="M900 1389 c0 -5 5 -7 10 -4 6 3 10 8 10 11 0 2 -4 4 -10 4 -5 0 -10
-5 -10 -11z"/>
<path d="M221 760 c0 -15 38 -91 39 -79 0 4 -9 26 -20 50 -11 24 -19 37 -19
29z"/>
<path d="M291 754 c0 -11 3 -14 6 -6 3 7 2 16 -1 19 -3 4 -6 -2 -5 -13z"/>
<path d="M537 764 c12 -3 24 -13 27 -22 3 -12 4 -11 3 3 -2 14 -10 21 -27 22
-21 1 -21 1 -3 -3z"/>
<path d="M652 723 l-2 -53 53 1 c28 1 40 4 25 6 -24 4 -27 9 -31 51 l-3 47 -2
-47 c-1 -34 -6 -48 -16 -48 -11 0 -16 14 -19 48 l-3 47 -2 -52z"/>
<path d="M837 764 c12 -3 24 -13 27 -22 3 -12 4 -11 3 3 -2 14 -10 21 -27 22
-21 1 -21 1 -3 -3z"/>
<path d="M1083 763 c13 -3 17 -16 19 -51 l1 -47 4 45 c3 24 10 48 16 52 7 4
-4 7 -23 7 -19 -1 -27 -3 -17 -6z"/>
<path d="M1201 723 c-1 -46 2 -53 18 -53 11 0 22 4 25 9 4 5 -3 7 -14 4 -15
-4 -20 0 -20 16 0 11 6 21 13 21 8 0 9 2 1 8 -7 4 -14 16 -17 27 -2 11 -5 -4
-6 -32z"/>
<path d="M1273 720 c0 -30 2 -43 4 -27 2 15 2 39 0 55 -2 15 -4 2 -4 -28z"/>
<path d="M1463 763 c9 -2 23 -2 30 0 6 3 -1 5 -18 5 -16 0 -22 -2 -12 -5z"/>
<path d="M1576 757 c3 -10 9 -15 12 -12 3 3 0 11 -7 18 -10 9 -11 8 -5 -6z"/>
<path d="M1972 723 l-2 -53 53 0 52 0 -5 52 -5 53 -3 -47 c-2 -33 -8 -48 -17
-48 -9 0 -15 15 -18 48 l-3 47 -2 -47 c-2 -40 -5 -48 -21 -48 -16 0 -21 8 -24
48 l-3 47 -2 -52z"/>
<path d="M2150 720 l0 -50 33 1 c28 2 29 3 6 6 -23 4 -26 9 -26 43 0 32 4 40
21 43 16 3 15 5 -6 6 -27 1 -28 -1 -28 -49z"/>
<path d="M2282 718 l2 -53 3 47 c3 33 9 48 21 51 12 3 11 5 -5 6 -21 1 -23 -3
-21 -51z"/>
<path d="M2447 755 c12 -8 24 -25 26 -38 4 -19 4 -18 6 5 1 18 -6 31 -18 38
-29 15 -38 12 -14 -5z"/>
<path d="M415 746 c3 -11 0 -23 -7 -28 -10 -6 -9 -8 4 -8 9 0 20 -9 23 -21 4
-11 9 -19 11 -16 2 2 -5 24 -16 48 -11 24 -18 35 -15 25z"/>
<path d="M1841 755 c0 -5 6 -21 14 -35 8 -14 14 -20 14 -15 0 6 -6 21 -14 35
-8 14 -14 21 -14 15z"/>
<path d="M2395 749 c-4 -6 -5 -12 -2 -15 2 -3 7 2 10 11 7 17 1 20 -8 4z"/>
<path d="M951 745 c0 -5 6 -21 14 -35 8 -14 14 -20 14 -15 0 6 -6 21 -14 35
-8 14 -14 21 -14 15z"/>
<path d="M1725 735 c19 -50 18 -53 -17 -58 -30 -3 -29 -4 10 -5 l42 -2 -15 37
c-16 39 -34 63 -20 28z"/>
<path d="M1458 723 c7 -3 16 -2 19 1 4 3 -2 6 -13 5 -11 0 -14 -3 -6 -6z"/>
<path d="M1596 717 c3 -10 9 -15 12 -12 3 3 0 11 -7 18 -10 9 -11 8 -5 -6z"/>
<path d="M1493 704 c1 -11 -7 -20 -23 -25 -22 -6 -23 -7 -4 -8 27 -1 51 26 37
40 -8 8 -11 6 -10 -7z"/>
<path d="M2390 701 c0 -6 4 -13 10 -16 6 -3 7 1 4 9 -7 18 -14 21 -14 7z"/>
</g>
</svg>
