<?xml version="1.0" standalone="no"?>
<!DOCTYPE svg PUBLIC "-//W3C//DTD SVG 20010904//EN"
 "http://www.w3.org/TR/2001/REC-SVG-20010904/DTD/svg10.dtd">
<svg version="1.0" xmlns="http://www.w3.org/2000/svg"
 width="283.000000pt" height="272.000000pt" viewBox="0 0 283.000000 272.000000"
 preserveAspectRatio="xMidYMid meet">

<g transform="translate(0.000000,272.000000) scale(0.100000,-0.100000)"
fill="#000000" stroke="none">
<path d="M447 1624 c-4 -4 -7 -16 -7 -26 0 -16 9 -18 71 -18 67 0 70 1 67 23
-3 20 -9 22 -63 25 -34 2 -64 0 -68 -4z"/>
<path d="M337 1542 c-24 -26 -25 -262 -2 -262 13 0 15 21 15 125 0 124 0 125
25 131 13 3 107 4 209 2 147 -2 182 0 174 10 -8 9 -62 12 -208 12 -178 0 -198
-2 -213 -18z"/>
<path d="M440 1461 c0 -32 -3 -86 -6 -120 l-7 -62 84 3 84 3 -3 30 c-2 17 -5
69 -8 118 l-6 87 -69 0 -69 0 0 -59z"/>
<path d="M637 1504 c-4 -4 -7 -56 -7 -116 l0 -108 130 0 131 0 -3 113 -3 112
-121 3 c-66 1 -123 -1 -127 -4z m78 -34 c-3 -5 -15 -10 -26 -10 -10 0 -19 5
-19 10 0 6 12 10 26 10 14 0 23 -4 19 -10z m70 0 c-3 -5 -15 -10 -26 -10 -10
0 -19 5 -19 10 0 6 12 10 26 10 14 0 23 -4 19 -10z m65 0 c0 -5 -9 -10 -19
-10 -11 0 -23 5 -26 10 -4 6 5 10 19 10 14 0 26 -4 26 -10z m-130 -50 c0 -5
-11 -10 -25 -10 -14 0 -25 5 -25 10 0 6 11 10 25 10 14 0 25 -4 25 -10z m60 0
c0 -5 -9 -10 -20 -10 -11 0 -20 5 -20 10 0 6 9 10 20 10 11 0 20 -4 20 -10z
m70 0 c0 -5 -9 -10 -20 -10 -11 0 -20 5 -20 10 0 6 9 10 20 10 11 0 20 -4 20
-10z m-130 -50 c0 -5 -11 -10 -25 -10 -14 0 -25 5 -25 10 0 6 11 10 25 10 14
0 25 -4 25 -10z m65 0 c-3 -5 -15 -10 -26 -10 -10 0 -19 5 -19 10 0 6 12 10
26 10 14 0 23 -4 19 -10z m65 0 c0 -5 -9 -10 -20 -10 -11 0 -20 5 -20 10 0 6
9 10 20 10 11 0 20 -4 20 -10z m-130 -50 c0 -5 -11 -10 -25 -10 -14 0 -25 5
-25 10 0 6 11 10 25 10 14 0 25 -4 25 -10z m60 0 c0 -5 -9 -10 -20 -10 -11 0
-20 5 -20 10 0 6 9 10 20 10 11 0 20 -4 20 -10z m70 0 c0 -5 -9 -10 -20 -10
-11 0 -20 5 -20 10 0 6 9 10 20 10 11 0 20 -4 20 -10z"/>
<path d="M1010 1355 c0 -19 5 -35 10 -35 6 0 10 6 10 13 0 8 3 9 8 1 4 -6 22
-11 40 -12 30 -1 32 1 32 34 0 40 -23 47 -41 12 l-12 -22 -8 22 c-14 36 -39
28 -39 -13z"/>
<path d="M1137 1373 c-2 -10 -8 -25 -11 -33 -5 -12 2 -15 34 -15 44 0 45 2 28
40 -13 29 -43 33 -51 8z"/>
<path d="M1219 1376 c-1 -9 -1 -23 -1 -31 0 -31 3 -32 37 -17 47 22 46 55 -2
60 -24 2 -33 -1 -34 -12z m46 -16 c-3 -5 -10 -10 -16 -10 -5 0 -9 5 -9 10 0 6
7 10 16 10 8 0 12 -4 9 -10z"/>
<path d="M1302 1353 c3 -35 6 -38 37 -41 62 -6 81 4 81 43 0 24 -5 35 -15 35
-9 0 -15 -9 -15 -25 0 -14 -4 -25 -10 -25 -5 0 -10 11 -10 25 0 14 -4 25 -10
25 -5 0 -10 -11 -10 -24 0 -14 -4 -28 -10 -31 -6 -4 -10 7 -10 24 0 21 -5 31
-16 31 -12 0 -14 -9 -12 -37z"/>
<path d="M1430 1355 c0 -19 5 -35 10 -35 20 0 70 30 70 42 0 7 6 3 14 -7 8
-11 12 -23 10 -27 -3 -5 4 -8 16 -8 14 0 25 10 33 29 14 33 33 29 38 -7 5 -31
23 -29 27 3 2 14 8 25 13 25 5 0 9 5 9 10 0 6 -22 10 -49 10 -37 0 -50 -4 -56
-17 -6 -16 -8 -16 -18 -2 -8 10 -30 16 -64 18 l-53 1 0 -35z m50 5 c0 -5 -4
-10 -10 -10 -5 0 -10 5 -10 10 0 6 5 10 10 10 6 0 10 -4 10 -10z"/>
<path d="M1680 1355 c0 -41 15 -50 53 -36 17 7 28 7 32 0 12 -18 25 2 25 37 0
24 -5 34 -15 34 -8 0 -15 -9 -15 -19 0 -17 -3 -18 -25 -8 -14 7 -25 15 -25 20
0 4 -7 7 -15 7 -11 0 -15 -11 -15 -35z m50 -9 c0 -3 -4 -8 -10 -11 -5 -3 -10
-1 -10 4 0 6 5 11 10 11 6 0 10 -2 10 -4z"/>
<path d="M1840 1355 c0 -33 2 -35 35 -35 28 0 35 4 35 19 0 14 -8 21 -27 24
l-28 4 28 2 c40 2 33 21 -8 21 -33 0 -35 -2 -35 -35z m47 -21 c-3 -3 -12 -4
-19 -1 -8 3 -5 6 6 6 11 1 17 -2 13 -5z"/>
<path d="M1920 1380 c0 -5 9 -19 20 -30 16 -16 17 -20 4 -20 -8 0 -13 -4 -9
-10 10 -16 49 6 58 34 12 35 0 47 -19 21 -14 -19 -16 -19 -25 -2 -11 18 -29
23 -29 7z"/>
<path d="M2017 1358 c-13 -31 -12 -34 7 -41 23 -9 67 -6 66 6 0 4 0 21 0 37 0
27 -3 30 -30 30 -24 0 -32 -6 -43 -32z m51 -5 c-5 -25 -28 -28 -28 -4 0 12 6
21 16 21 9 0 14 -7 12 -17z"/>
<path d="M2107 1369 c3 -11 12 -23 20 -26 12 -5 12 -7 1 -14 -9 -6 -6 -9 10
-9 16 0 27 9 37 33 15 36 2 50 -20 21 -13 -18 -14 -18 -20 -1 -10 25 -34 22
-28 -4z"/>
<path d="M2202 1353 c3 -37 4 -38 47 -41 61 -5 68 0 63 42 -5 45 -29 48 -35 4
l-4 -33 -1 33 c-2 39 -32 46 -32 7 0 -14 -4 -25 -10 -25 -5 0 -10 11 -10 25 0
14 -5 25 -11 25 -6 0 -9 -16 -7 -37z"/>
<path d="M2332 1353 c3 -40 22 -52 56 -37 14 6 13 8 -8 14 -16 5 -19 8 -7 9
25 1 21 19 -5 24 -20 4 -19 4 5 6 40 2 33 21 -9 21 -35 0 -35 -1 -32 -37z"/>
<path d="M2410 1355 c0 -24 5 -35 15 -35 9 0 15 9 15 25 0 18 5 25 20 25 11 0
20 5 20 10 0 6 -16 10 -35 10 -33 0 -35 -2 -35 -35z"/>
<path d="M2494 1376 c-13 -33 0 -51 36 -51 32 0 35 2 35 30 0 27 -4 30 -33 33
-22 2 -34 -2 -38 -12z m49 -13 c9 -9 -13 -34 -24 -27 -14 8 -11 34 4 34 8 0
17 -3 20 -7z"/>
<path d="M241 1246 c-8 -9 -11 -55 -9 -142 l3 -129 348 -3 348 -2 -3 142 -3
143 -336 3 c-279 2 -338 0 -348 -12z m149 -56 c0 -17 -7 -20 -45 -20 -38 0
-45 3 -45 20 0 17 7 20 45 20 38 0 45 -3 45 -20z m160 0 c0 -17 -7 -20 -45
-20 -38 0 -45 3 -45 20 0 17 7 20 45 20 38 0 45 -3 45 -20z m158 -2 c3 -15 -4
-18 -47 -18 -45 0 -51 3 -51 21 0 18 5 20 47 17 36 -2 49 -7 51 -20z m152 2
c0 -17 -7 -20 -45 -20 -38 0 -45 3 -45 20 0 17 7 20 45 20 38 0 45 -3 45 -20z
m-470 -75 c0 -11 -12 -15 -45 -15 -33 0 -45 4 -45 15 0 11 12 15 45 15 33 0
45 -4 45 -15z m160 0 c0 -11 -12 -15 -45 -15 -33 0 -45 4 -45 15 0 11 12 15
45 15 33 0 45 -4 45 -15z m160 0 c0 -11 -12 -15 -50 -15 -38 0 -50 4 -50 15 0
11 12 15 50 15 38 0 50 -4 50 -15z m150 0 c0 -11 -12 -15 -45 -15 -33 0 -45 4
-45 15 0 11 12 15 45 15 33 0 45 -4 45 -15z m-470 -70 c0 -11 -12 -15 -45 -15
-33 0 -45 4 -45 15 0 11 12 15 45 15 33 0 45 -4 45 -15z m160 0 c0 -11 -12
-15 -45 -15 -33 0 -45 4 -45 15 0 11 12 15 45 15 33 0 45 -4 45 -15z m160 0
c0 -11 -12 -15 -50 -15 -38 0 -50 4 -50 15 0 11 12 15 50 15 38 0 50 -4 50
-15z m150 0 c0 -11 -12 -15 -45 -15 -33 0 -45 4 -45 15 0 11 12 15 45 15 33 0
45 -4 45 -15z"/>
</g>
</svg>
