<?xml version="1.0" standalone="no"?>
<!DOCTYPE svg PUBLIC "-//W3C//DTD SVG 20010904//EN"
 "http://www.w3.org/TR/2001/REC-SVG-20010904/DTD/svg10.dtd">
<svg version="1.0" xmlns="http://www.w3.org/2000/svg"
 width="244.000000pt" height="201.000000pt" viewBox="0 0 244.000000 201.000000"
 preserveAspectRatio="xMidYMid meet">

<g transform="translate(0.000000,201.000000) scale(0.100000,-0.100000)"
fill="#000000" stroke="none">
<path d="M466 1132 c-7 -47 -6 -170 3 -201 l6 -23 90 47 c96 50 115 62 115 76
0 9 -125 96 -176 122 l-32 16 -6 -37z"/>
<path d="M997 1163 c-9 -8 -9 -76 -1 -97 10 -27 24 -18 24 17 1 30 2 31 15 13
12 -16 17 -17 30 -6 13 11 15 9 15 -14 0 -16 5 -26 15 -26 12 0 15 13 15 60 0
68 -18 81 -44 33 l-14 -28 -13 28 c-12 26 -28 34 -42 20z"/>
<path d="M1152 1111 c-21 -62 -18 -71 18 -49 16 10 24 10 40 0 35 -22 39 -13
16 45 -30 79 -49 80 -74 4z m48 -7 c0 -8 -4 -14 -10 -14 -5 0 -10 9 -10 21 0
11 5 17 10 14 6 -3 10 -13 10 -21z"/>
<path d="M1270 1110 c0 -58 12 -80 23 -41 3 12 15 21 33 23 21 2 30 9 32 26 5
33 -15 52 -54 52 l-34 0 0 -60z m58 17 c2 -12 -3 -17 -17 -17 -12 0 -21 6 -21
13 0 31 32 34 38 4z"/>
<path d="M1390 1110 l0 -60 80 0 80 0 0 60 c0 47 -3 60 -15 60 -11 0 -15 -12
-15 -50 0 -43 -3 -50 -20 -50 -17 0 -20 7 -20 50 0 38 -4 50 -15 50 -11 0 -15
-12 -15 -51 0 -43 -3 -50 -17 -47 -14 2 -19 15 -21 51 -4 68 -22 58 -22 -13z"/>
<path d="M1580 1110 c0 -59 13 -79 25 -41 3 12 17 21 33 23 21 2 28 9 30 32 4
34 -10 46 -55 46 l-33 0 0 -60z m59 31 c18 -11 5 -31 -20 -31 -18 0 -26 20
-12 33 8 9 15 9 32 -2z"/>
<path d="M1710 1129 c12 -23 18 -48 15 -60 -4 -12 -2 -19 7 -19 8 0 26 25 41
55 31 64 31 65 14 65 -8 0 -19 -12 -26 -27 l-13 -28 -14 28 c-8 15 -21 27 -30
27 -12 0 -11 -7 6 -41z"/>
<path d="M1810 1161 c0 -5 9 -11 20 -14 16 -4 20 -14 20 -51 0 -34 4 -46 15
-46 11 0 15 12 15 50 0 38 4 50 15 50 8 0 15 5 15 10 0 6 -22 10 -50 10 -27 0
-50 -4 -50 -9z"/>
<path d="M1930 1110 l0 -60 39 0 c21 0 44 6 51 15 18 22 2 55 -31 62 -20 4
-29 12 -29 24 0 11 -7 19 -15 19 -12 0 -15 -13 -15 -60z m68 -22 c-7 -19 -38
-22 -38 -4 0 10 9 16 21 16 12 0 19 -5 17 -12z"/>
<path d="M2050 1111 c0 -48 3 -61 15 -61 13 0 15 11 13 57 -4 81 -28 85 -28 4z"/>
<path d="M998 993 c-2 -5 -3 -33 -3 -63 0 -50 2 -55 24 -58 38 -6 69 7 77 30
8 26 -17 48 -54 48 -35 0 -21 24 16 28 18 2 30 8 27 13 -7 11 -82 12 -87 2z
m72 -83 c0 -5 -11 -10 -25 -10 -14 0 -25 5 -25 10 0 6 11 10 25 10 14 0 25 -4
25 -10z"/>
<path d="M1120 990 c0 -6 9 -28 19 -48 14 -28 17 -42 9 -56 -8 -14 -7 -17 7
-14 23 4 80 128 59 128 -8 0 -20 -11 -26 -25 -6 -14 -15 -25 -19 -25 -4 0 -10
11 -13 25 -6 24 -36 36 -36 15z"/>
<path d="M1260 956 c0 -25 -4 -48 -10 -51 -5 -3 -10 -15 -10 -26 0 -10 5 -19
10 -19 6 0 10 5 10 10 0 6 15 10 34 10 19 0 38 -4 41 -10 3 -5 10 -10 16 -10
12 0 12 37 -1 45 -5 3 -10 26 -10 51 l0 44 -40 0 -40 0 0 -44z m58 -19 c3 -32
0 -37 -19 -37 -17 0 -20 4 -15 23 3 12 6 30 6 40 0 34 25 11 28 -26z"/>
<path d="M1391 959 c13 -26 18 -50 15 -65 -4 -16 -2 -24 7 -24 12 0 67 98 67
120 0 19 -21 10 -32 -15 -6 -14 -14 -25 -18 -25 -4 0 -12 11 -18 25 -6 14 -19
25 -27 25 -13 0 -12 -6 6 -41z"/>
<path d="M1510 936 l0 -64 83 -4 c45 -2 83 -3 84 -3 0 0 -1 30 -4 68 -4 47
-10 67 -19 67 -10 0 -14 -14 -14 -50 0 -43 -3 -50 -20 -50 -17 0 -20 7 -20 50
0 38 -4 50 -15 50 -11 0 -15 -12 -15 -50 0 -43 -3 -50 -20 -50 -17 0 -20 7
-20 50 0 28 -4 50 -10 50 -6 0 -10 -28 -10 -64z"/>
<path d="M1708 993 c-3 -4 -4 -33 -4 -63 l1 -55 48 -3 c37 -2 47 0 47 12 0 12
-10 16 -35 16 -41 0 -47 17 -8 22 39 4 42 28 4 28 -41 0 -40 18 2 22 17 2 32
8 32 13 0 12 -81 19 -87 8z"/>
<path d="M1822 938 c4 -79 26 -91 30 -16 3 46 6 53 26 56 38 6 24 22 -18 22
l-41 0 3 -62z"/>
<path d="M1938 989 c-19 -10 -25 -73 -10 -95 28 -41 92 -14 92 41 0 54 -39 80
-82 54z m52 -54 c0 -28 -4 -35 -20 -35 -16 0 -20 7 -20 35 0 28 4 35 20 35 16
0 20 -7 20 -35z"/>
</g>
</svg>
