<?xml version="1.0" standalone="no"?>
<!DOCTYPE svg PUBLIC "-//W3C//DTD SVG 20010904//EN"
 "http://www.w3.org/TR/2001/REC-SVG-20010904/DTD/svg10.dtd">
<svg version="1.0" xmlns="http://www.w3.org/2000/svg"
 width="258.000000pt" height="266.000000pt" viewBox="0 0 258.000000 266.000000"
 preserveAspectRatio="xMidYMid meet">

<g transform="translate(0.000000,266.000000) scale(0.100000,-0.100000)"
fill="#000000" stroke="none">
<path d="M0 1330 l0 -1330 1290 0 1290 0 0 1330 0 1330 -1290 0 -1290 0 0
-1330z m1344 553 c46 -4 71 -1 94 11 43 22 75 20 105 -8 27 -25 67 -97 67
-118 -1 -7 -12 8 -26 34 -31 61 -63 83 -106 73 -18 -4 -61 -9 -95 -12 -52 -4
-71 -1 -115 20 -29 13 -64 34 -78 45 -18 16 -8 13 33 -9 41 -22 78 -33 121
-36z m315 -108 c1 -11 -3 -26 -8 -34 -6 -10 -9 -4 -9 20 0 19 -8 51 -16 71
-24 55 -19 59 9 8 13 -25 24 -54 24 -65z m-131 23 c23 -15 46 -37 53 -49 9
-18 5 -17 -34 10 -64 44 -126 58 -179 43 -24 -7 -65 -19 -93 -27 -54 -16 -148
-19 -180 -6 -13 6 8 8 55 8 60 0 87 5 135 26 83 37 182 35 243 -5z m137 -108
c4 -6 8 -41 10 -78 2 -37 7 -84 11 -105 l6 -38 -69 3 -68 3 2 30 c2 38 12 189
12 193 2 7 91 0 96 -8z m-339 -190 c8 0 14 -4 14 -10 0 -5 -4 -10 -9 -10 -5 0
-23 -3 -40 -6 -30 -6 -31 -6 -31 30 l0 37 26 -20 c15 -12 33 -21 40 -21z m695
-161 c8 -16 8 -28 0 -45 -18 -41 -71 -25 -71 21 0 44 50 61 71 24z m-1467 -1
c5 -10 7 -10 12 0 12 26 34 12 34 -21 0 -42 -7 -49 -32 -34 -16 9 -22 9 -25
-1 -8 -22 -23 -1 -23 34 0 34 22 48 34 22z m135 -19 c15 -45 15 -44 -29 -44
-22 0 -40 0 -40 1 0 1 7 18 15 38 19 44 39 46 54 5z m100 17 c15 -18 3 -46
-19 -46 -11 0 -22 -5 -25 -10 -12 -19 -25 1 -25 36 0 31 3 34 29 34 16 0 34
-6 40 -14z m99 -23 c-3 -36 -5 -38 -38 -38 -33 0 -35 2 -38 38 l-3 37 41 0 41
0 -3 -37z m91 23 c15 -18 3 -46 -19 -46 -11 0 -22 -5 -25 -10 -12 -19 -25 1
-25 36 0 31 3 34 29 34 16 0 34 -6 40 -14z m47 3 c5 -8 9 -8 14 1 4 7 13 11
19 9 7 -3 5 -15 -7 -38 -19 -39 -41 -52 -40 -24 1 10 -2 28 -6 41 -8 23 7 31
20 11z m134 1 c0 -5 -4 -10 -9 -10 -5 0 -11 -11 -13 -25 -4 -35 -22 -36 -26
-2 -2 15 -8 27 -13 27 -5 0 -9 5 -9 10 0 6 16 10 35 10 19 0 35 -4 35 -10z
m40 -5 c0 -8 9 -15 20 -15 11 0 20 7 20 15 0 8 5 15 10 15 6 0 10 -17 10 -38
0 -38 -1 -39 -40 -40 l-40 -2 0 40 c0 22 5 40 10 40 6 0 10 -7 10 -15z m210 5
c0 -5 -10 -11 -22 -11 l-23 -2 23 -4 c48 -9 36 -52 -15 -53 -20 0 -23 5 -23
40 0 38 2 40 30 40 17 0 30 -4 30 -10z m58 -2 c9 -9 12 -9 12 0 0 7 7 12 15
12 12 0 13 -5 3 -27 -19 -44 -36 -59 -50 -45 -9 9 -9 12 0 12 8 0 9 7 2 26 -6
14 -10 27 -10 30 0 8 16 4 28 -8z m106 -12 c3 -13 9 -31 12 -40 5 -13 -1 -16
-35 -16 -23 0 -41 2 -41 5 0 3 7 21 14 40 17 41 41 46 50 11z m52 13 c5 -8 9
-8 14 1 4 7 13 11 19 9 7 -3 5 -15 -7 -38 -19 -39 -41 -52 -40 -24 1 10 -2 28
-6 41 -8 23 7 31 20 11z m134 -29 c0 -39 -1 -40 -35 -40 -34 0 -35 1 -35 40 0
39 1 40 35 40 34 0 35 -1 35 -40z m90 30 c0 -5 -10 -11 -22 -11 -17 -1 -19 -2
-5 -6 9 -2 17 -8 17 -13 0 -5 -8 -11 -17 -13 -14 -4 -12 -5 5 -6 12 0 22 -6
22 -12 0 -6 -14 -9 -32 -7 -30 3 -33 6 -36 41 -3 36 -3 37 32 37 20 0 36 -4
36 -10z m80 0 c0 -5 -9 -10 -20 -10 -16 0 -20 -7 -20 -31 0 -17 -4 -28 -10
-24 -5 3 -10 22 -10 41 0 31 2 34 30 34 17 0 30 -4 30 -10z m-1130 -216 c0
-33 2 -35 28 -32 19 2 28 9 30 25 3 24 45 43 93 43 26 0 29 -3 29 -35 0 -33 2
-35 35 -35 33 0 35 2 35 35 l0 35 225 0 225 0 0 -37 c0 -40 16 -35 22 7 3 25
4 25 103 25 99 0 100 0 103 -25 5 -36 22 -50 22 -18 0 20 7 29 31 37 18 6 45
11 60 11 26 0 29 -3 29 -35 0 -34 1 -35 40 -35 l40 0 0 -220 0 -220 -300 0
-300 0 0 65 0 65 -75 0 -75 0 0 -65 0 -65 -300 0 -300 0 0 220 0 220 40 0 c36
0 40 3 40 24 0 27 32 44 88 45 30 1 32 -1 32 -35z m530 -414 l0 -60 -55 0 -55
0 0 60 0 60 55 0 55 0 0 -60z"/>
<path d="M1978 1328 c-6 -17 1 -38 13 -38 5 0 9 11 9 25 0 26 -14 34 -22 13z"/>
<path d="M742 1318 c6 -18 28 -21 28 -4 0 9 -7 16 -16 16 -9 0 -14 -5 -12 -12z"/>
<path d="M932 1318 c6 -18 28 -21 28 -4 0 9 -7 16 -16 16 -9 0 -14 -5 -12 -12z"/>
<path d="M1378 1293 c7 -3 16 -2 19 1 4 3 -2 6 -13 5 -11 0 -14 -3 -6 -6z"/>
<path d="M1540 1300 c0 -5 5 -10 10 -10 6 0 10 5 10 10 0 6 -4 10 -10 10 -5 0
-10 -4 -10 -10z"/>
<path d="M660 1020 c0 -27 3 -30 30 -30 27 0 30 3 30 30 0 27 -3 30 -30 30
-27 0 -30 -3 -30 -30z"/>
<path d="M750 1020 c0 -27 3 -30 30 -30 27 0 30 3 30 30 0 27 -3 30 -30 30
-27 0 -30 -3 -30 -30z"/>
<path d="M840 1020 c0 -27 3 -30 30 -30 27 0 30 3 30 30 0 27 -3 30 -30 30
-27 0 -30 -3 -30 -30z"/>
<path d="M930 1020 c0 -27 3 -30 30 -30 27 0 30 3 30 30 0 27 -3 30 -30 30
-27 0 -30 -3 -30 -30z"/>
<path d="M1020 1020 c0 -27 3 -30 30 -30 27 0 30 3 30 30 0 27 -3 30 -30 30
-27 0 -30 -3 -30 -30z"/>
<path d="M1110 1020 c0 -27 3 -30 30 -30 27 0 30 3 30 30 0 27 -3 30 -30 30
-27 0 -30 -3 -30 -30z"/>
<path d="M1200 1020 c0 -27 3 -30 30 -30 27 0 30 3 30 30 0 27 -3 30 -30 30
-27 0 -30 -3 -30 -30z"/>
<path d="M1290 1020 c0 -27 3 -30 30 -30 27 0 30 3 30 30 0 27 -3 30 -30 30
-27 0 -30 -3 -30 -30z"/>
<path d="M1380 1020 c0 -27 3 -30 30 -30 27 0 30 3 30 30 0 27 -3 30 -30 30
-27 0 -30 -3 -30 -30z"/>
<path d="M1470 1020 c0 -27 3 -30 30 -30 27 0 30 3 30 30 0 27 -3 30 -30 30
-27 0 -30 -3 -30 -30z"/>
<path d="M1560 1020 c0 -27 3 -30 30 -30 27 0 30 3 30 30 0 27 -3 30 -30 30
-27 0 -30 -3 -30 -30z"/>
<path d="M1650 1020 c0 -27 3 -30 30 -30 27 0 30 3 30 30 0 27 -3 30 -30 30
-27 0 -30 -3 -30 -30z"/>
<path d="M1740 1020 c0 -27 3 -30 30 -30 27 0 30 3 30 30 0 27 -3 30 -30 30
-27 0 -30 -3 -30 -30z"/>
<path d="M1830 1020 c0 -27 3 -30 30 -30 27 0 30 3 30 30 0 27 -3 30 -30 30
-27 0 -30 -3 -30 -30z"/>
<path d="M660 930 c0 -27 3 -30 30 -30 27 0 30 3 30 30 0 27 -3 30 -30 30 -27
0 -30 -3 -30 -30z"/>
<path d="M750 930 c0 -27 3 -30 30 -30 27 0 30 3 30 30 0 27 -3 30 -30 30 -27
0 -30 -3 -30 -30z"/>
<path d="M840 930 c0 -27 3 -30 30 -30 27 0 30 3 30 30 0 27 -3 30 -30 30 -27
0 -30 -3 -30 -30z"/>
<path d="M930 930 c0 -27 3 -30 30 -30 27 0 30 3 30 30 0 27 -3 30 -30 30 -27
0 -30 -3 -30 -30z"/>
<path d="M1020 930 c0 -27 3 -30 30 -30 27 0 30 3 30 30 0 27 -3 30 -30 30
-27 0 -30 -3 -30 -30z"/>
<path d="M1110 930 c0 -27 3 -30 30 -30 27 0 30 3 30 30 0 27 -3 30 -30 30
-27 0 -30 -3 -30 -30z"/>
<path d="M1200 930 c0 -27 3 -30 30 -30 27 0 30 3 30 30 0 27 -3 30 -30 30
-27 0 -30 -3 -30 -30z"/>
<path d="M1290 930 c0 -27 3 -30 30 -30 27 0 30 3 30 30 0 27 -3 30 -30 30
-27 0 -30 -3 -30 -30z"/>
<path d="M1380 930 c0 -27 3 -30 30 -30 27 0 30 3 30 30 0 27 -3 30 -30 30
-27 0 -30 -3 -30 -30z"/>
<path d="M1470 930 c0 -27 3 -30 30 -30 27 0 30 3 30 30 0 27 -3 30 -30 30
-27 0 -30 -3 -30 -30z"/>
<path d="M1560 930 c0 -27 3 -30 30 -30 27 0 30 3 30 30 0 27 -3 30 -30 30
-27 0 -30 -3 -30 -30z"/>
<path d="M1650 930 c0 -27 3 -30 30 -30 27 0 30 3 30 30 0 27 -3 30 -30 30
-27 0 -30 -3 -30 -30z"/>
<path d="M1740 929 c0 -27 3 -30 28 -27 21 2 28 9 30 31 3 24 0 27 -27 27 -28
0 -31 -3 -31 -31z"/>
<path d="M1830 929 c0 -27 3 -30 28 -27 21 2 28 9 30 31 3 24 0 27 -27 27 -28
0 -31 -3 -31 -31z"/>
<path d="M660 840 c0 -27 3 -30 30 -30 27 0 30 3 30 30 0 27 -3 30 -30 30 -27
0 -30 -3 -30 -30z"/>
<path d="M750 840 c0 -27 3 -30 30 -30 27 0 30 3 30 30 0 27 -3 30 -30 30 -27
0 -30 -3 -30 -30z"/>
<path d="M840 840 c0 -27 3 -30 30 -30 27 0 30 3 30 30 0 27 -3 30 -30 30 -27
0 -30 -3 -30 -30z"/>
<path d="M930 840 c0 -27 3 -30 30 -30 27 0 30 3 30 30 0 27 -3 30 -30 30 -27
0 -30 -3 -30 -30z"/>
<path d="M1020 840 c0 -27 3 -30 30 -30 27 0 30 3 30 30 0 27 -3 30 -30 30
-27 0 -30 -3 -30 -30z"/>
<path d="M1110 840 c0 -27 3 -30 30 -30 27 0 30 3 30 30 0 27 -3 30 -30 30
-27 0 -30 -3 -30 -30z"/>
<path d="M1200 840 c0 -27 3 -30 30 -30 27 0 30 3 30 30 0 27 -3 30 -30 30
-27 0 -30 -3 -30 -30z"/>
<path d="M1290 840 c0 -27 3 -30 30 -30 27 0 30 3 30 30 0 27 -3 30 -30 30
-27 0 -30 -3 -30 -30z"/>
<path d="M1380 840 c0 -27 3 -30 30 -30 27 0 30 3 30 30 0 27 -3 30 -30 30
-27 0 -30 -3 -30 -30z"/>
<path d="M1470 840 c0 -27 3 -30 30 -30 27 0 30 3 30 30 0 27 -3 30 -30 30
-27 0 -30 -3 -30 -30z"/>
<path d="M1560 840 c0 -27 3 -30 30 -30 27 0 30 3 30 30 0 27 -3 30 -30 30
-27 0 -30 -3 -30 -30z"/>
<path d="M1650 840 c0 -27 3 -30 30 -30 27 0 30 3 30 30 0 27 -3 30 -30 30
-27 0 -30 -3 -30 -30z"/>
<path d="M1740 840 c0 -27 3 -30 30 -30 27 0 30 3 30 30 0 27 -3 30 -30 30
-27 0 -30 -3 -30 -30z"/>
<path d="M1830 840 c0 -27 3 -30 30 -30 27 0 30 3 30 30 0 27 -3 30 -30 30
-27 0 -30 -3 -30 -30z"/>
<path d="M662 753 c2 -22 9 -29 31 -31 24 -3 27 0 27 27 0 28 -3 31 -31 31
-27 0 -30 -3 -27 -27z"/>
<path d="M752 753 c2 -22 9 -29 31 -31 24 -3 27 0 27 27 0 28 -3 31 -31 31
-27 0 -30 -3 -27 -27z"/>
<path d="M842 753 c2 -22 9 -29 31 -31 24 -3 27 0 27 27 0 28 -3 31 -31 31
-27 0 -30 -3 -27 -27z"/>
<path d="M930 750 c0 -27 3 -30 30 -30 27 0 30 3 30 30 0 27 -3 30 -30 30 -27
0 -30 -3 -30 -30z"/>
<path d="M1022 753 c2 -22 9 -29 31 -31 24 -3 27 0 27 27 0 28 -3 31 -31 31
-27 0 -30 -3 -27 -27z"/>
<path d="M1110 750 c0 -27 3 -30 30 -30 27 0 30 3 30 30 0 27 -3 30 -30 30
-27 0 -30 -3 -30 -30z"/>
<path d="M1380 750 c0 -27 3 -30 30 -30 27 0 30 3 30 30 0 27 -3 30 -30 30
-27 0 -30 -3 -30 -30z"/>
<path d="M1470 750 c0 -27 3 -30 30 -30 27 0 30 3 30 30 0 27 -3 30 -30 30
-27 0 -30 -3 -30 -30z"/>
<path d="M1560 750 c0 -27 3 -30 30 -30 27 0 30 3 30 30 0 27 -3 30 -30 30
-27 0 -30 -3 -30 -30z"/>
<path d="M1650 749 c0 -27 3 -30 28 -27 21 2 28 9 30 31 3 24 0 27 -27 27 -28
0 -31 -3 -31 -31z"/>
<path d="M1740 749 c0 -27 3 -30 28 -27 21 2 28 9 30 31 3 24 0 27 -27 27 -28
0 -31 -3 -31 -31z"/>
<path d="M1830 749 c0 -27 3 -30 28 -27 21 2 28 9 30 31 3 24 0 27 -27 27 -28
0 -31 -3 -31 -31z"/>
</g>
</svg>
