<?xml version="1.0" standalone="no"?>
<!DOCTYPE svg PUBLIC "-//W3C//DTD SVG 20010904//EN"
 "http://www.w3.org/TR/2001/REC-SVG-20010904/DTD/svg10.dtd">
<svg version="1.0" xmlns="http://www.w3.org/2000/svg"
 width="230.000000pt" height="224.000000pt" viewBox="0 0 230.000000 224.000000"
 preserveAspectRatio="xMidYMid meet">

<g transform="translate(0.000000,224.000000) scale(0.100000,-0.100000)"
fill="#000000" stroke="none">
<path d="M1017 2009 c-183 -27 -358 -113 -496 -243 -119 -114 -210 -271 -253
-436 -36 -143 -28 -367 18 -477 l13 -33 170 0 171 0 0 51 c0 43 2 50 18 45 9
-3 81 -26 160 -51 152 -48 252 -60 252 -31 0 10 -64 35 -204 80 -112 36 -209
66 -215 66 -6 0 -11 16 -11 36 0 30 3 35 17 30 9 -4 171 -56 359 -116 312
-100 351 -110 419 -110 41 0 75 3 75 8 0 4 -99 39 -220 77 l-220 70 0 34 c0
22 4 32 13 29 14 -6 381 -123 415 -133 l22 -6 0 210 0 211 65 0 65 0 0 -250 0
-250 177 2 178 3 19 65 c15 52 19 98 20 225 1 139 -2 170 -22 240 -47 163
-153 332 -273 436 -200 173 -477 255 -732 218z m423 -344 c33 -17 55 -53 65
-107 4 -23 16 -43 31 -53 27 -17 74 -103 74 -135 0 -15 -7 -20 -28 -20 -23 0
-30 6 -41 35 -7 21 -24 41 -42 50 -26 14 -32 14 -61 -1 -49 -25 -102 -20 -155
15 -52 34 -68 34 -120 -6 -42 -32 -89 -33 -146 -3 -45 24 -47 24 -82 7 -54
-26 -92 -22 -126 12 -39 40 -41 97 -3 135 30 29 67 33 137 14 40 -10 47 -9 77
12 38 27 92 30 137 6 44 -22 76 -20 110 7 15 13 37 29 48 35 29 16 91 15 125
-3z"/>
<path d="M155 658 c6 -74 15 -89 15 -27 l0 44 25 -30 25 -30 22 30 23 30 6
-45 c5 -41 6 -39 7 23 1 37 0 67 -2 67 -2 0 -14 -16 -26 -35 -12 -19 -25 -35
-30 -35 -4 0 -18 16 -31 35 -13 19 -28 35 -32 35 -4 0 -6 -28 -2 -62z"/>
<path d="M344 704 c-4 -10 -15 -40 -25 -66 -10 -27 -15 -48 -10 -48 6 0 13 9
16 20 4 12 15 20 30 20 14 0 25 -7 28 -20 3 -11 10 -20 16 -20 6 0 2 24 -11
58 -26 70 -35 81 -44 56z m26 -56 c0 -5 -7 -8 -15 -8 -17 0 -18 2 -9 25 5 13
8 14 15 3 5 -7 9 -16 9 -20z"/>
<path d="M430 655 c0 -37 4 -65 10 -65 6 0 10 10 10 23 0 14 9 26 23 32 25 11
35 54 15 66 -7 5 -23 9 -35 9 -22 0 -23 -4 -23 -65z m50 40 c10 -12 10 -18 0
-30 -19 -23 -30 -18 -30 15 0 33 11 38 30 15z"/>
<path d="M530 655 l0 -65 75 0 75 0 0 65 c0 37 -4 65 -10 65 -5 0 -10 -25 -10
-55 0 -52 -1 -55 -25 -55 -22 0 -24 4 -28 58 l-3 57 -2 -57 c-2 -55 -3 -58
-27 -58 -24 0 -25 3 -25 55 0 30 -4 55 -10 55 -6 0 -10 -28 -10 -65z"/>
<path d="M720 656 c0 -38 4 -66 10 -66 6 0 8 10 4 24 -5 20 -2 25 17 28 52 8
49 70 -5 76 -26 3 -26 3 -26 -62z m45 24 c0 -13 -6 -25 -12 -27 -16 -6 -27 21
-19 43 9 23 31 11 31 -16z"/>
<path d="M825 670 c23 -46 24 -50 8 -59 -21 -11 -13 -24 10 -15 9 3 26 30 38
60 18 43 27 54 46 54 21 0 23 -4 23 -60 0 -33 4 -60 10 -60 6 0 10 26 10 59 0
54 2 60 23 64 12 2 -5 5 -39 6 l-60 1 -18 -37 -18 -38 -19 38 c-11 20 -24 37
-29 37 -6 0 1 -22 15 -50z"/>
<path d="M1030 655 c0 -62 1 -65 24 -65 24 0 56 23 56 40 0 14 -30 40 -46 40
-8 0 -14 10 -14 25 0 14 -4 25 -10 25 -6 0 -10 -28 -10 -65z m49 -4 c17 -11 7
-41 -14 -41 -9 0 -15 9 -15 25 0 27 6 30 29 16z"/>
<path d="M1133 655 c0 -38 2 -53 4 -32 2 20 2 52 0 70 -2 17 -4 1 -4 -38z"/>
<path d="M1238 655 c4 -69 12 -77 53 -55 30 16 24 50 -11 63 -39 15 -40 44 -2
50 23 3 22 4 -8 6 l-35 1 3 -65z m52 -26 c0 -12 -7 -19 -20 -19 -19 0 -28 28
-14 43 11 11 34 -5 34 -24z"/>
<path d="M1345 670 c22 -43 23 -51 10 -56 -8 -4 -15 -10 -15 -15 0 -11 11 -11
27 -1 17 11 65 122 53 122 -5 0 -17 -17 -26 -37 l-16 -38 -19 38 c-11 20 -24
37 -29 37 -6 0 1 -23 15 -50z"/>
<path d="M1450 671 c0 -28 -4 -53 -10 -56 -5 -3 -9 -18 -9 -33 1 -17 3 -21 6
-9 3 13 15 17 49 17 25 0 43 -4 39 -9 -3 -5 0 -13 6 -17 9 -5 10 3 6 32 -4 21
-7 58 -7 82 l0 42 -40 0 -40 0 0 -49z m60 -11 c0 -46 -2 -50 -24 -50 -23 0
-24 3 -20 38 8 54 12 62 29 62 11 0 15 -12 15 -50z"/>
<path d="M1575 670 c23 -46 24 -50 8 -59 -21 -11 -13 -24 9 -16 15 6 24 22 54
93 20 45 2 40 -20 -5 l-18 -38 -19 38 c-11 20 -24 37 -29 37 -6 0 1 -22 15
-50z"/>
<path d="M1680 655 l0 -65 66 0 c52 0 70 -4 81 -17 13 -16 14 -14 9 22 -3 22
-6 59 -6 83 0 23 -4 42 -10 42 -5 0 -10 -25 -10 -55 0 -52 -1 -55 -25 -55 -22
0 -24 4 -28 58 l-3 57 -2 -57 c-2 -55 -3 -58 -27 -58 -24 0 -25 3 -25 55 0 30
-4 55 -10 55 -6 0 -10 -28 -10 -65z"/>
<path d="M1870 655 l0 -65 30 0 c17 0 30 5 30 10 0 6 -9 10 -20 10 -29 0 -27
37 3 43 l22 4 -22 2 c-17 1 -23 7 -23 25 0 18 7 26 23 29 16 3 13 5 -10 6
l-33 1 0 -65z"/>
<path d="M1960 661 c0 -33 5 -63 10 -66 6 -4 10 16 10 54 0 57 1 60 28 64 22
3 20 4 -10 6 l-38 1 0 -59z"/>
<path d="M2064 712 c-26 -17 -36 -53 -24 -83 15 -36 44 -45 75 -25 32 21 36
89 6 106 -23 12 -42 13 -57 2z m51 -26 c20 -30 5 -76 -24 -76 -37 0 -53 56
-25 84 21 22 31 20 49 -8z"/>
<path d="M568 431 c70 -61 190 -128 288 -161 234 -77 470 -62 689 44 84 41
206 125 213 147 2 5 -228 9 -615 9 l-618 -1 43 -38z"/>
</g>
</svg>
