<?xml version="1.0" standalone="no"?>
<!DOCTYPE svg PUBLIC "-//W3C//DTD SVG 20010904//EN"
 "http://www.w3.org/TR/2001/REC-SVG-20010904/DTD/svg10.dtd">
<svg version="1.0" xmlns="http://www.w3.org/2000/svg"
 width="244.000000pt" height="246.000000pt" viewBox="0 0 244.000000 246.000000"
 preserveAspectRatio="xMidYMid meet">

<g transform="translate(0.000000,246.000000) scale(0.100000,-0.100000)"
fill="#000000" stroke="none">
<path d="M1050 1734 c0 -6 -7 -62 -15 -127 l-16 -116 58 -166 58 -167 32 5
c71 12 113 70 113 157 l0 53 -60 -6 -60 -5 0 42 c0 25 -21 101 -50 186 -49
138 -60 165 -60 144z"/>
<path d="M1306 1528 c-4 -29 -9 -69 -11 -88 -4 -29 7 -56 59 -154 l64 -119 7
49 c11 81 12 82 78 102 61 18 62 19 65 56 8 95 -95 105 -124 13 -9 -27 -12
-23 -67 83 -32 60 -60 110 -62 110 -2 0 -6 -24 -9 -52z"/>
<path d="M909 1443 c-18 -4 -39 -107 -41 -197 0 -40 4 -53 22 -68 52 -42 94
-10 103 78 4 32 10 89 13 127 l7 67 -44 -1 c-24 -1 -51 -3 -60 -6z"/>
<path d="M550 975 c0 -58 2 -65 20 -65 16 0 20 7 21 33 l0 32 16 -32 c9 -18
24 -33 34 -33 10 0 22 13 30 33 l13 32 3 -32 c3 -25 9 -33 24 -33 17 0 19 7
19 65 0 63 -1 65 -26 65 -20 0 -29 -8 -42 -40 -9 -22 -20 -40 -23 -40 -3 0
-13 18 -22 40 -12 32 -20 40 -41 40 -25 0 -26 -2 -26 -65z"/>
<path d="M776 984 c-14 -31 -26 -60 -26 -65 0 -12 27 -11 35 1 3 6 22 10 41
10 19 0 34 -4 34 -10 0 -5 9 -10 20 -10 26 0 25 6 -6 74 -20 45 -30 56 -49 56
-19 0 -29 -11 -49 -56z m64 -16 c0 -5 -7 -8 -15 -8 -15 0 -20 21 -8 33 7 7 23
-11 23 -25z"/>
<path d="M920 975 c0 -58 2 -65 20 -65 11 0 20 6 20 14 0 8 16 16 40 20 52 8
73 45 45 76 -14 15 -31 20 -72 20 l-53 0 0 -65z m93 28 c11 -10 -13 -33 -34
-33 -12 0 -19 7 -19 20 0 14 7 20 23 20 13 0 27 -3 30 -7z"/>
<path d="M1080 975 l0 -66 98 3 97 3 3 63 c3 57 1 62 -18 62 -17 0 -20 -6 -20
-50 0 -43 -3 -50 -20 -50 -17 0 -20 7 -20 50 0 43 -3 50 -20 50 -17 0 -20 -7
-20 -50 0 -43 -3 -50 -20 -50 -17 0 -20 7 -20 50 0 43 -3 50 -20 50 -18 0 -20
-7 -20 -65z"/>
<path d="M1310 975 c0 -52 3 -65 15 -65 9 0 18 6 21 14 3 8 19 17 36 20 41 8
58 23 58 52 0 30 -27 44 -84 44 l-46 0 0 -65z m88 18 c-2 -10 -13 -19 -26 -21
-17 -3 -22 2 -22 17 0 16 6 21 26 21 19 0 25 -5 22 -17z"/>
<path d="M1463 1008 c7 -18 23 -37 35 -43 28 -12 28 -25 1 -25 -29 0 -18 -24
12 -28 31 -4 52 19 72 81 15 45 15 47 -2 47 -11 0 -24 -12 -31 -30 -15 -36
-30 -34 -48 3 -8 16 -21 27 -33 27 -18 0 -18 -2 -6 -32z"/>
<path d="M1610 1025 c0 -8 9 -15 19 -15 17 0 20 -8 23 -47 2 -36 7 -49 21 -51
14 -3 17 4 17 47 0 48 2 51 25 51 16 0 25 6 25 15 0 12 -14 15 -65 15 -51 0
-65 -3 -65 -15z"/>
<path d="M1760 975 l0 -65 48 0 c48 0 82 20 82 47 0 18 -36 43 -63 43 -20 0
-27 5 -27 20 0 13 -7 20 -20 20 -18 0 -20 -7 -20 -65z m85 -20 c0 -5 -10 -11
-22 -13 -16 -2 -23 2 -23 13 0 11 7 15 23 13 12 -2 22 -7 22 -13z"/>
<path d="M1910 975 c0 -58 2 -65 20 -65 18 0 20 7 20 65 0 58 -2 65 -20 65
-18 0 -20 -7 -20 -65z"/>
<path d="M592 808 l3 -63 43 -3 c47 -3 92 18 92 43 0 20 -39 45 -75 47 -23 1
-19 2 14 7 73 10 64 31 -14 31 l-66 0 3 -62z m89 -23 c0 -5 -12 -11 -26 -13
-18 -2 -25 1 -25 13 0 12 7 15 25 13 14 -2 26 -7 26 -13z"/>
<path d="M740 863 c0 -19 41 -73 55 -73 8 0 15 -4 15 -10 0 -5 -9 -10 -20 -10
-11 0 -20 -7 -20 -15 0 -20 44 -19 65 2 17 16 30 45 41 88 8 34 -22 34 -38 0
-6 -14 -17 -25 -25 -25 -7 0 -19 11 -25 25 -10 22 -48 36 -48 18z"/>
<path d="M938 853 c-9 -10 -19 -33 -23 -50 -3 -18 -11 -33 -16 -33 -5 0 -9 -7
-9 -15 0 -12 16 -15 85 -15 67 0 85 3 85 14 0 8 -4 18 -10 21 -5 3 -10 26 -10
51 l0 44 -43 0 c-29 0 -49 -6 -59 -17z m70 -45 c-3 -28 -7 -34 -32 -36 -26 -3
-28 -1 -23 20 4 13 7 29 7 36 0 6 12 12 26 12 23 0 25 -3 22 -32z"/>
<path d="M1083 838 c7 -18 23 -37 35 -43 28 -12 28 -25 1 -25 -26 0 -20 -24 7
-28 29 -4 51 18 73 76 21 52 21 52 1 52 -13 0 -24 -10 -30 -25 -5 -14 -16 -25
-25 -25 -8 0 -21 11 -27 25 -6 14 -20 25 -30 25 -16 0 -17 -3 -5 -32z"/>
<path d="M1240 805 l0 -65 105 0 c85 0 105 3 105 14 0 8 -4 18 -10 21 -5 3
-10 26 -10 51 0 32 -4 44 -14 44 -11 0 -16 -14 -18 -47 -3 -40 -6 -48 -23 -48
-17 0 -20 8 -23 48 -4 65 -30 65 -34 0 -2 -36 -7 -49 -20 -51 -15 -3 -18 4
-18 47 0 44 -3 51 -20 51 -18 0 -20 -7 -20 -65z"/>
<path d="M1472 808 l3 -63 63 -3 c51 -2 62 0 62 13 0 11 -11 15 -45 15 -51 0
-62 17 -13 22 42 4 50 28 9 28 -47 0 -47 18 0 22 24 2 44 9 47 16 3 9 -14 12
-63 12 l-66 0 3 -62z"/>
<path d="M1622 808 c2 -50 6 -63 21 -66 14 -3 17 4 17 47 l0 50 37 3 c20 2 38
9 41 16 3 9 -13 12 -58 12 l-61 0 3 -62z"/>
<path d="M1777 852 c-22 -24 -22 -76 -1 -93 28 -23 93 -17 115 10 24 30 24 56
-1 81 -26 26 -90 27 -113 2z m88 -33 c9 -28 -16 -53 -44 -44 -20 6 -29 43 -14
58 15 15 52 6 58 -14z"/>
</g>
</svg>
