<?xml version="1.0" standalone="no"?>
<!DOCTYPE svg PUBLIC "-//W3C//DTD SVG 20010904//EN"
 "http://www.w3.org/TR/2001/REC-SVG-20010904/DTD/svg10.dtd">
<svg version="1.0" xmlns="http://www.w3.org/2000/svg"
 width="308.000000pt" height="271.000000pt" viewBox="0 0 308.000000 271.000000"
 preserveAspectRatio="xMidYMid meet">

<g transform="translate(0.000000,271.000000) scale(0.100000,-0.100000)"
fill="#000000" stroke="none">
<path d="M1067 1588 c-49 -10 -101 -50 -121 -93 -34 -70 -9 -169 50 -205 44
-25 47 -25 34 1 -7 13 -17 18 -27 15 -14 -6 -14 -4 -2 10 12 15 15 13 36 -12
29 -37 42 -24 14 14 l-21 30 95 93 c52 51 95 98 95 104 0 28 -98 55 -153 43z"/>
<path d="M1250 1450 c-12 -7 -12 -12 -2 -22 9 -9 15 -9 25 1 10 10 8 11 -8 5
-18 -7 -18 -6 -6 9 15 19 13 21 -9 7z"/>
<path d="M1184 1406 c-7 -19 3 -36 21 -36 9 0 12 -6 8 -16 -5 -13 -10 -11 -28
10 -25 29 -37 32 -54 13 -8 -10 -7 -19 4 -33 8 -10 15 -29 15 -41 0 -14 6 -23
15 -23 8 0 15 6 15 14 0 12 7 13 32 5 17 -5 33 -8 34 -6 1 1 5 19 9 40 6 30 4
37 -8 37 -9 0 -17 10 -19 22 -4 27 -35 37 -44 14z"/>
<path d="M1297 1330 c-14 -35 -8 -56 8 -30 9 14 42 12 48 -2 2 -7 7 -10 11 -7
10 9 -23 79 -38 79 -7 0 -20 -18 -29 -40z m38 10 c3 -5 1 -10 -4 -10 -6 0 -11
5 -11 10 0 6 2 10 4 10 3 0 8 -4 11 -10z"/>
<path d="M1400 1331 c0 -23 5 -41 10 -41 6 0 10 4 10 9 0 5 12 11 28 13 21 2
27 8 27 28 0 22 -5 25 -37 28 l-38 3 0 -40z m60 9 c0 -5 -9 -10 -20 -10 -11 0
-20 5 -20 10 0 6 9 10 20 10 11 0 20 -4 20 -10z"/>
<path d="M1510 1330 l0 -40 60 0 60 0 0 40 c0 22 -4 40 -10 40 -5 0 -10 -13
-10 -30 0 -20 -5 -30 -15 -30 -10 0 -15 10 -15 30 0 17 -4 30 -10 30 -5 0 -10
-13 -10 -30 0 -20 -5 -30 -15 -30 -10 0 -15 10 -15 30 0 17 -4 30 -10 30 -5 0
-10 -18 -10 -40z"/>
<path d="M1670 1330 c0 -22 5 -40 10 -40 6 0 10 5 10 10 0 6 8 10 19 10 24 0
43 23 35 44 -4 10 -18 16 -40 16 -33 0 -34 -1 -34 -40z m55 10 c-3 -5 -13 -10
-21 -10 -8 0 -14 5 -14 10 0 6 9 10 21 10 11 0 17 -4 14 -10z"/>
<path d="M1780 1362 c0 -4 7 -17 15 -29 11 -16 12 -22 2 -26 -6 -2 -9 -8 -5
-12 10 -11 36 12 54 47 16 30 2 40 -15 11 -10 -17 -12 -17 -25 0 -14 18 -26
22 -26 9z"/>
<path d="M1890 1360 c0 -5 7 -10 15 -10 10 0 15 -10 15 -30 0 -16 5 -30 10
-30 6 0 10 14 10 30 0 20 5 30 15 30 8 0 15 5 15 10 0 6 -18 10 -40 10 -22 0
-40 -4 -40 -10z"/>
<path d="M2000 1329 l0 -40 38 3 c29 2 37 7 37 23 0 14 -8 21 -27 23 -16 2
-28 9 -28 18 0 8 -4 14 -10 14 -5 0 -10 -18 -10 -41z m53 -16 c-7 -2 -19 -2
-25 0 -7 3 -2 5 12 5 14 0 19 -2 13 -5z"/>
<path d="M2090 1330 c0 -22 5 -40 10 -40 6 0 10 18 10 40 0 22 -4 40 -10 40
-5 0 -10 -18 -10 -40z"/>
<path d="M1077 1353 c-13 -12 -7 -44 8 -49 24 -10 47 14 34 37 -10 19 -30 25
-42 12z"/>
<path d="M1152 1223 c3 -36 5 -38 38 -38 28 0 36 4 38 22 3 18 -3 22 -30 26
l-33 4 33 1 c47 3 39 22 -9 22 l-40 0 3 -37z m58 -13 c12 -8 9 -10 -13 -10
-16 0 -26 4 -22 10 8 12 16 12 35 0z"/>
<path d="M1280 1230 c12 -16 17 -30 11 -30 -6 0 -11 -4 -11 -10 0 -21 20 -9
44 27 26 38 26 63 0 28 -14 -19 -16 -19 -28 -2 -24 31 -39 19 -16 -13z"/>
<path d="M1380 1241 c0 -10 -3 -34 -6 -52 -6 -28 -4 -32 7 -21 7 6 25 12 40
12 15 0 29 -6 32 -12 10 -28 17 2 11 45 -7 47 -7 47 -45 47 -31 0 -39 -4 -39
-19z m60 -21 c0 -13 -7 -20 -20 -20 -13 0 -20 7 -20 20 0 13 7 20 20 20 13 0
20 -7 20 -20z"/>
<path d="M1510 1230 c12 -16 17 -30 11 -30 -6 0 -11 -4 -11 -10 0 -21 20 -9
44 27 28 41 26 56 -4 28 -18 -16 -20 -16 -26 -1 -3 9 -13 16 -21 16 -11 0 -10
-7 7 -30z"/>
<path d="M1610 1220 l0 -40 54 0 c34 0 56 -5 59 -12 10 -28 17 2 11 45 -7 52
-24 64 -24 17 0 -20 -5 -30 -15 -30 -10 0 -15 10 -15 30 0 17 -4 30 -10 30 -5
0 -10 -13 -10 -30 0 -20 -5 -30 -15 -30 -10 0 -15 10 -15 30 0 17 -4 30 -10
30 -5 0 -10 -18 -10 -40z"/>
<path d="M1760 1220 l0 -40 40 0 c45 0 56 19 13 21 -24 2 -25 2 -5 6 31 6 28
21 -5 26 -26 4 -26 4 5 6 46 2 40 21 -8 21 l-40 0 0 -40z"/>
<path d="M1870 1220 c0 -22 5 -40 10 -40 6 0 10 14 10 30 0 25 4 30 25 30 14
0 25 5 25 10 0 6 -16 10 -35 10 -34 0 -35 -1 -35 -40z"/>
<path d="M1980 1245 c-27 -32 7 -73 53 -61 30 7 44 40 27 61 -16 19 -64 19
-80 0z m65 -25 c0 -18 -33 -26 -47 -12 -6 6 -7 15 -3 22 10 16 50 8 50 -10z"/>
</g>
</svg>
